<svg width="331" height="172" viewBox="0 0 331 172" fill="none" xmlns="http://www.w3.org/2000/svg">
<path fill-rule="evenodd" clip-rule="evenodd" d="M330.308 35.0846C330.308 48.1832 323.13 59.6052 312.493 65.6317C314.59 70.1302 315.761 75.1472 315.761 80.4378C315.761 98.88 301.532 113.999 283.453 115.414C280.311 131.567 266.087 143.761 249.015 143.761C247.494 143.761 245.995 143.664 244.524 143.477C238.121 151.965 227.95 157.453 216.498 157.453C207.525 157.453 199.34 154.085 193.136 148.544C190.217 149.331 187.148 149.751 183.98 149.751C180.054 149.751 176.278 149.106 172.753 147.916C166.769 158.706 155.262 166.01 142.05 166.01C136.489 166.01 131.231 164.716 126.559 162.414C123.847 163.086 121.01 163.443 118.09 163.443C114.7 163.443 111.423 162.962 108.323 162.065C102.003 168.214 93.3741 172 83.8607 172C68.5891 172 55.5964 162.243 50.7767 148.622C46.0549 150.987 40.7252 152.318 35.0846 152.318C15.7079 152.318 0 136.61 0 117.234C0 97.8571 15.7079 82.1492 35.0846 82.1492C50.3562 82.1492 63.3489 91.9065 68.1686 105.527C72.8904 103.162 78.2201 101.831 83.8607 101.831C87.2499 101.831 90.527 102.311 93.6273 103.208C99.9471 97.0601 108.576 93.2736 118.09 93.2736C123.65 93.2736 128.909 94.5672 133.58 96.8699C136.293 96.1976 139.13 95.8408 142.05 95.8408C145.976 95.8408 149.752 96.4858 153.277 97.6756C159.261 86.8856 170.768 79.5821 183.98 79.5821C192.952 79.5821 201.138 82.9499 207.341 88.4903C210.26 87.7033 213.33 87.2836 216.498 87.2836C218.019 87.2836 219.518 87.3804 220.988 87.5683C226.869 79.7721 235.928 74.5076 246.238 73.7003C248.225 63.4872 254.642 54.8569 263.407 49.8907C261.31 45.3922 260.139 40.3751 260.139 35.0846C260.139 15.7079 275.847 0 295.224 0C314.601 0 330.308 15.7079 330.308 35.0846Z" fill="white"/>
</svg>
