<svg width="302" height="166" viewBox="0 0 302 166" fill="none" xmlns="http://www.w3.org/2000/svg">
<path fill-rule="evenodd" clip-rule="evenodd" d="M302 36.2281C302 53.2522 289.931 67.4572 273.882 70.7536C273.936 71.521 273.963 72.2958 273.963 73.0769C273.963 90.5227 260.361 104.792 243.183 105.857C241.649 110.108 239.262 113.952 236.23 117.182C236.285 117.96 236.313 118.746 236.313 119.538C236.313 137.677 221.608 152.382 203.469 152.382C189.878 152.382 178.214 144.126 173.221 132.355C173.157 132.355 173.093 132.355 173.029 132.355C169.854 132.355 166.785 131.905 163.881 131.064C158.215 140.931 147.573 147.576 135.379 147.576C129.6 147.576 124.17 146.083 119.453 143.463C116.165 145.711 112.448 147.378 108.449 148.314C102.972 158.824 91.9767 166 79.305 166C64.1171 166 51.3371 155.691 47.5806 141.688C43.1487 143.917 38.1427 145.172 32.8435 145.172C14.7045 145.172 0 130.468 0 112.329C0 94.19 14.7045 79.4854 32.8435 79.4854C48.0314 79.4854 60.8115 89.7946 64.5679 103.797C66.8371 102.656 69.2568 101.77 71.7893 101.177C77.2665 90.6669 88.262 83.4907 100.934 83.4907C106.713 83.4907 112.143 84.9832 116.86 87.6038C122.132 83.9978 128.51 81.8886 135.379 81.8886C138.554 81.8886 141.624 82.3391 144.528 83.1797C150.194 73.3134 160.836 66.6684 173.029 66.6684C179.02 66.6684 184.636 68.2725 189.472 71.0744C194.918 65.8169 202.176 62.4245 210.217 61.9259C213.756 52.1207 221.829 44.4831 231.905 41.5436C231.643 39.81 231.507 38.0349 231.507 36.2281C231.507 16.7619 247.287 0.981445 266.753 0.981445C286.22 0.981445 302 16.7619 302 36.2281Z" fill="white" fill-opacity="0.5"/>
</svg>
