<svg width="142" height="93" viewBox="0 0 142 93" fill="none" xmlns="http://www.w3.org/2000/svg">
<path d="M95 73L97.2274 79.7726L104 82L97.2274 84.2274L95 91L92.7726 84.2274L86 82L92.7726 79.7726L95 73Z" fill="white"/>
<path d="M8 77L9.9799 83.0201L16 85L9.9799 86.9799L8 93L6.0201 86.9799L0 85L6.0201 83.0201L8 77Z" fill="white"/>
<path d="M82 32L82.495 33.505L84 34L82.495 34.495L82 36L81.505 34.495L80 34L81.505 33.505L82 32Z" fill="white"/>
<path d="M105 6L105.99 9.01005L109 10L105.99 10.9899L105 14L104.01 10.9899L101 10L104.01 9.01005L105 6Z" fill="white"/>
<path d="M50 58L51.2374 61.7626L55 63L51.2374 64.2374L50 68L48.7626 64.2374L45 63L48.7626 61.7626L50 58Z" fill="white"/>
<path d="M11 31L11.7425 33.2575L14 34L11.7425 34.7425L11 37L10.2575 34.7425L8 34L10.2575 33.2575L11 31Z" fill="white"/>
<path d="M58 0L59.9799 6.0201L66 8L59.9799 9.9799L58 16L56.0201 9.9799L50 8L56.0201 6.0201L58 0Z" fill="white"/>
<path d="M139 52L139.742 54.2575L142 55L139.742 55.7425L139 58L138.258 55.7425L136 55L138.258 54.2575L139 52Z" fill="white"/>
</svg>
